<?xml version="1.0" encoding="UTF-8" standalone="no"?>
<svg
   viewBox="0 0 1024 256"
   role="img"
   aria-label="Hysteron quorum shield logo mark"
   version="1.1"
   id="svg5"
   sodipodi:docname="hysteron.svg"
   width="1024"
   height="256"
   inkscape:version="1.3.2 (091e20e, 2023-11-25, custom)"
   xmlns:inkscape="http://www.inkscape.org/namespaces/inkscape"
   xmlns:sodipodi="http://sodipodi.sourceforge.net/DTD/sodipodi-0.dtd"
   xmlns="http://www.w3.org/2000/svg"
   xmlns:svg="http://www.w3.org/2000/svg"
   xmlns:rdf="http://www.w3.org/1999/02/22-rdf-syntax-ns#"
   xmlns:cc="http://creativecommons.org/ns#"
   xmlns:dc="http://purl.org/dc/elements/1.1/">
  <defs
     id="defs5" />
  <sodipodi:namedview
     id="namedview5"
     pagecolor="#ffffff"
     bordercolor="#000000"
     borderopacity="0.25"
     inkscape:showpageshadow="2"
     inkscape:pageopacity="0.0"
     inkscape:pagecheckerboard="0"
     inkscape:deskcolor="#d1d1d1"
     inkscape:zoom="1.1630859"
     inkscape:cx="501.25273"
     inkscape:cy="64.913518"
     inkscape:window-width="2560"
     inkscape:window-height="1387"
     inkscape:window-x="-8"
     inkscape:window-y="22"
     inkscape:window-maximized="1"
     inkscape:current-layer="svg5" />
  <title
     id="title1">Hysteron quorum shield logo mark</title>
  <g
     id="g6"
     transform="translate(39,16.055998)">
    <g
       fill="none"
       stroke="#000000"
       stroke-width="18"
       stroke-linecap="butt"
       stroke-linejoin="miter"
       id="g3"
       transform="translate(-39,-15)">
      <path
         d="M 39.032627,24 H 86"
         id="path1"
         style="stroke:#085f88;stroke-width:20.0115;stroke-opacity:1" />
      <path
         d="m 48,24 v 120 l 80,82 80,-82 V 24"
         id="path2"
         style="fill:none;fill-opacity:1;stroke:#085f88;stroke-opacity:1" />
      <path
         d="m 170,24 h 47.02771"
         id="path3"
         style="stroke:#085f88;stroke-width:20.0243;stroke-opacity:1" />
    </g>
    <g
       fill="#000000"
       id="g5"
       transform="translate(-39,-15)"
       style="opacity:1">
      <path
         id="circle3"
         style="opacity:1;fill:#cbe149;stroke:#085f88;stroke-width:8;paint-order:stroke fill markers"
         d="M 145,78 A 17,17 0 0 1 128,95 17,17 0 0 1 111,78 17,17 0 0 1 128,61 17,17 0 0 1 145,78 Z" />
      <path
         id="use6"
         style="fill:#cbe149;stroke:#085f88;stroke-width:8;paint-order:stroke fill markers"
         d="m 180.56551,124.35675 a 17,17 0 0 1 -17,17 17,17 0 0 1 -17,-17 17,17 0 0 1 17,-17 17,17 0 0 1 17,17 z" />
      <path
         id="circle6"
         style="opacity:1;fill:#cbe149;stroke:#085f88;stroke-width:8;paint-order:stroke fill markers"
         d="m 108.06658,124.35676 a 17,17 0 0 1 -16.999998,17 17,17 0 0 1 -17,-17 17,17 0 0 1 17,-17 17,17 0 0 1 16.999998,17 z" />
    </g>
  </g>
  <metadata
     id="metadata5">
    <rdf:RDF>
      <cc:Work
         rdf:about="">
        <dc:title>Hysteron quorum shield logo mark</dc:title>
      </cc:Work>
    </rdf:RDF>
  </metadata>
  <path
     d="M 346.1801,50.416705 V 205.5833 q 0,2.04765 -2.04765,2.04765 h -22.29667 q -2.27517,0 -2.27517,-2.04765 v -64.38731 h -26.39197 v 64.38731 q 0,2.04765 -2.27517,2.04765 h -22.29666 q -2.04766,0 -2.04766,-2.04765 V 50.416705 q 0,-2.047653 2.04766,-2.047653 h 22.29666 q 2.27517,0 2.27517,2.047653 v 64.387315 h 26.39197 V 50.416705 q 0,-2.047653 2.27517,-2.047653 h 22.29667 q 2.04765,0 2.04765,2.047653 z"
     id="text9"
     style="font-size:227.517px;font-family:Stengazeta;-inkscape-font-specification:'Stengazeta, Normal';fill:#cbe149;stroke:#085f88;stroke-width:7.81519;stroke-linejoin:bevel;stroke-dashoffset:466;paint-order:stroke fill markers"
     aria-label="H" />
  <path
     d="m 361.8786,51.099256 q -0.45504,-1.137585 0.22752,-1.820136 0.68255,-0.910068 1.82013,-0.910068 h 21.84163 q 1.59262,0 2.04766,1.365102 l 12.96847,49.143672 12.74095,-49.143672 q 0.45503,-1.365102 2.04765,-1.365102 h 22.06915 q 1.13758,0 1.59262,0.910068 0.68255,0.682551 0.22752,1.820136 L 413.97999,128 v 77.5833 q 0,2.04765 -2.27517,2.04765 h -22.06915 q -2.27517,0 -2.27517,-2.04765 V 128 Z"
     id="text8"
     style="font-size:227.517px;font-family:Stengazeta;-inkscape-font-specification:'Stengazeta, Normal';fill:#cbe149;stroke:#085f88;stroke-width:7.81519;stroke-linejoin:bevel;stroke-dashoffset:466;paint-order:stroke fill markers"
     aria-label="y" />
  <path
     d="m 498.24576,86.591908 v -9.555714 q 0,-2.047653 -2.04765,-2.047653 h -22.29666 q -2.04766,0 -2.04766,2.047653 V 94.78252 q 0,8.19061 3.86779,12.28592 4.09531,4.0953 9.78323,6.59799 5.91544,2.27517 12.74095,4.55034 7.05303,2.04765 12.74096,6.59799 5.91544,4.55034 9.78323,12.96847 4.0953,8.41813 4.0953,23.43425 v 19.79398 q 0,5.46041 -2.04765,10.46578 -2.04765,4.77786 -5.68793,8.41813 -3.64027,3.64027 -8.64564,5.68793 -4.77786,2.04765 -10.23827,2.04765 h -26.39197 q -5.46041,0 -10.46578,-2.04765 -4.77786,-2.27517 -8.41813,-5.68793 -3.64027,-3.64027 -5.68792,-8.41813 -2.04766,-5.00537 -2.04766,-10.46578 v -17.06377 q 0,-1.13759 0.68255,-1.82014 0.91007,-0.68255 2.04766,-0.22752 l 22.29666,5.46041 q 1.59262,0.45504 1.59262,2.04766 v 9.55571 q 0,2.04765 2.04766,2.04765 h 22.29666 q 2.04765,0 2.04765,-2.04765 v -17.74633 q 0,-8.41813 -4.0953,-12.28591 -3.86779,-4.09531 -9.78323,-6.37048 -5.68793,-2.50269 -12.74095,-4.55034 -6.82551,-2.27517 -12.74096,-6.82551 -5.68792,-4.55034 -9.78323,-12.96847 -3.86779,-8.41813 -3.86779,-23.43425 V 74.988541 q 0,-5.460408 2.04766,-10.238265 2.04765,-5.005374 5.68792,-8.645646 3.64027,-3.640272 8.41813,-5.687925 5.00537,-2.047653 10.46578,-2.047653 h 26.39197 q 5.46041,0 10.23827,2.047653 5.00537,2.047653 8.64564,5.687925 3.64028,3.640272 5.68793,8.645646 2.04765,4.777857 2.04765,10.238265 v 17.063775 q 0,1.137585 -0.91007,1.820136 -0.68255,0.682551 -1.82013,0.227517 l -22.29667,-5.460408 q -1.59262,-0.455034 -1.59262,-2.047653 z"
     id="text7"
     style="font-size:227.517px;font-family:Stengazeta;-inkscape-font-specification:'Stengazeta, Normal';fill:#cbe149;stroke:#085f88;stroke-width:7.81519;stroke-linejoin:bevel;stroke-dashoffset:466;paint-order:stroke fill markers"
     aria-label="s" />
  <path
     d="m 615.36931,50.416705 -6.14296,22.979217 q -0.45503,1.592619 -2.04765,1.592619 H 588.74982 V 205.5833 q 0,2.04765 -2.04765,2.04765 H 564.4055 q -2.04765,0 -2.04765,-2.04765 V 74.988541 h -24.57183 q -2.04766,0 -2.04766,-2.27517 V 50.416705 q 0,-2.047653 2.04766,-2.047653 h 75.53564 q 2.04765,0 2.04765,2.047653 z"
     id="text6"
     style="font-size:227.517px;font-family:Stengazeta;-inkscape-font-specification:'Stengazeta, Normal';fill:#cbe149;stroke:#085f88;stroke-width:7.81519;stroke-linejoin:bevel;stroke-dashoffset:466;paint-order:stroke fill markers"
     aria-label="t" />
  <path
     d="m 705.37051,183.28663 v 22.29667 q 0,2.04765 -2.27517,2.04765 h -75.30813 q -2.04765,0 -2.04765,-2.04765 V 50.416705 q 0,-2.047653 2.04765,-2.047653 h 75.30813 q 2.27517,0 2.27517,2.047653 l -6.37048,22.979217 q -0.45503,1.592619 -2.04765,1.592619 h -44.82085 v 39.815479 h 31.16983 q 2.04765,0 2.04765,2.04765 v 22.29666 q 0,2.04766 -2.04765,2.04766 h -31.16983 v 39.81547 h 50.96381 q 2.27517,0 2.27517,2.27517 z"
     id="text5"
     style="font-size:227.517px;font-family:Stengazeta;-inkscape-font-specification:'Stengazeta, Normal';fill:#cbe149;stroke:#085f88;stroke-width:7.81519;stroke-linejoin:bevel;stroke-dashoffset:466;paint-order:stroke fill markers"
     aria-label="e" />
  <path
     d="m 718.56661,50.416705 q 0,-2.047653 2.04765,-2.047653 h 50.96381 q 5.46041,0 10.23826,2.047653 5.00538,2.047653 8.64565,5.687925 3.64027,3.640272 5.68793,8.645646 2.04765,4.777857 2.04765,10.238265 v 39.815479 q 0,9.32819 -5.68793,16.38122 -5.68792,6.82551 -14.33357,9.3282 l 19.11143,64.38731 q 0.45503,1.13758 -0.22752,2.04765 -0.45503,0.68255 -1.59262,0.68255 h -22.29666 q -1.13759,0 -2.04765,-1.59262 l -19.33895,-64.84234 h -6.59799 v 64.38731 q 0,2.04765 -2.27517,2.04765 h -22.29667 q -2.04765,0 -2.04765,-2.04765 z m 26.61949,24.571836 v 39.815479 h 24.34432 q 2.04765,0 2.04765,-2.27517 V 77.036194 q 0,-2.047653 -2.04765,-2.047653 z"
     id="text3"
     style="font-size:227.517px;font-family:Stengazeta;-inkscape-font-specification:'Stengazeta, Normal';fill:#cbe149;stroke:#085f88;stroke-width:7.81519;stroke-linejoin:bevel;stroke-dashoffset:466;paint-order:stroke fill markers"
     aria-label="r" />
  <path
     d="m 866.68,48.369052 q 5.46041,0 10.23826,2.047653 5.00538,2.047653 8.64565,5.687925 3.64027,3.640272 5.68792,8.645646 2.04766,4.777857 2.04766,10.238265 V 181.01146 q 0,5.46041 -2.04766,10.46578 -2.04765,4.77786 -5.68792,8.41813 -3.64027,3.64027 -8.64565,5.68793 -4.77785,2.04765 -10.23826,2.04765 h -26.39197 q -5.46041,0 -10.46579,-2.04765 -4.77785,-2.04766 -8.41812,-5.68793 -3.64028,-3.64027 -5.68793,-8.41813 -2.04765,-5.00537 -2.04765,-10.46578 V 74.988541 q 0,-5.460408 2.04765,-10.238265 2.04765,-5.005374 5.68793,-8.645646 3.64027,-3.640272 8.41812,-5.687925 5.00538,-2.047653 10.46579,-2.047653 z m -2.04765,132.642408 q 2.04765,0 2.04765,-2.04765 V 77.036194 q 0,-2.047653 -2.04765,-2.047653 h -22.29667 q -2.04765,0 -2.04765,2.047653 V 178.96381 q 0,2.04765 2.04765,2.04765 z"
     id="text2"
     style="font-size:227.517px;font-family:Stengazeta;-inkscape-font-specification:'Stengazeta, Normal';fill:#cbe149;stroke:#085f88;stroke-width:7.81519;stroke-linejoin:bevel;stroke-dashoffset:466;paint-order:stroke fill markers"
     aria-label="o" />
  <path
     d="m 906.49522,50.416705 q 0,-2.047653 2.04765,-2.047653 h 22.97922 q 1.59262,0 2.04765,1.592619 l 25.93694,91.234319 V 50.416705 q 0,-2.047653 2.27517,-2.047653 h 22.29667 q 2.04765,0 2.04765,2.047653 V 205.5833 q 0,2.04765 -2.04765,2.04765 H 961.0993 q -1.13758,0 -2.04765,-1.59262 l -25.93694,-91.23431 v 90.77928 q 0,2.04765 -2.27517,2.04765 h -22.29667 q -2.04765,0 -2.04765,-2.04765 z"
     id="text1"
     style="font-size:227.517px;font-family:Stengazeta;-inkscape-font-specification:'Stengazeta, Normal';fill:#cbe149;stroke:#085f88;stroke-width:7.81519;stroke-linejoin:bevel;stroke-dashoffset:466;paint-order:stroke fill markers"
     aria-label="n" />
</svg>
