<?xml version="1.0" encoding="UTF-8" standalone="no"?>
<svg
   width="170mm"
   height="201.93mm"
   version="1.1"
   viewBox="0 0 602.36016 715.50651"
   id="svg46"
   sodipodi:docname="architecture.svg"
   inkscape:version="1.3.2 (091e20e, 2023-11-25, custom)"
   xmlns:inkscape="http://www.inkscape.org/namespaces/inkscape"
   xmlns:sodipodi="http://sodipodi.sourceforge.net/DTD/sodipodi-0.dtd"
   xmlns="http://www.w3.org/2000/svg"
   xmlns:svg="http://www.w3.org/2000/svg"
   xmlns:rdf="http://www.w3.org/1999/02/22-rdf-syntax-ns#"
   xmlns:cc="http://creativecommons.org/ns#"
   xmlns:dc="http://purl.org/dc/elements/1.1/">
  <sodipodi:namedview
     id="namedview46"
     pagecolor="#ffffff"
     bordercolor="#000000"
     borderopacity="0.25"
     inkscape:showpageshadow="2"
     inkscape:pageopacity="0.0"
     inkscape:pagecheckerboard="0"
     inkscape:deskcolor="#d1d1d1"
     inkscape:document-units="mm"
     inkscape:zoom="1.5605346"
     inkscape:cx="321.04382"
     inkscape:cy="381.59999"
     inkscape:window-width="2560"
     inkscape:window-height="1387"
     inkscape:window-x="2552"
     inkscape:window-y="22"
     inkscape:window-maximized="1"
     inkscape:current-layer="g16" />
  <defs
     id="defs7">
    <marker
       id="marker10780"
       overflow="visible"
       orient="auto">
      <path
         transform="matrix(-.8 0 0 -.8 -10 0)"
         d="m0 0 5-5-17.5 5 17.5 5z"
         fill-rule="evenodd"
         stroke="#000"
         stroke-width="1pt"
         id="path1" />
    </marker>
    <marker
       id="marker10516"
       overflow="visible"
       orient="auto">
      <path
         transform="matrix(-.8 0 0 -.8 -10 0)"
         d="m0 0 5-5-17.5 5 17.5 5z"
         fill-rule="evenodd"
         stroke="#000"
         stroke-width="1pt"
         id="path2" />
    </marker>
    <marker
       id="marker10018"
       overflow="visible"
       orient="auto">
      <path
         transform="matrix(-.8 0 0 -.8 -10 0)"
         d="m0 0 5-5-17.5 5 17.5 5z"
         fill-rule="evenodd"
         stroke="#000"
         stroke-width="1pt"
         id="path3" />
    </marker>
    <marker
       id="marker9864"
       overflow="visible"
       orient="auto">
      <path
         transform="matrix(-.8 0 0 -.8 -10 0)"
         d="m0 0 5-5-17.5 5 17.5 5z"
         fill-rule="evenodd"
         stroke="#000"
         stroke-width="1pt"
         id="path4" />
    </marker>
    <marker
       id="marker9716"
       overflow="visible"
       orient="auto">
      <path
         transform="matrix(-.8 0 0 -.8 -10 0)"
         d="m0 0 5-5-17.5 5 17.5 5z"
         fill-rule="evenodd"
         stroke="#000"
         stroke-width="1pt"
         id="path5" />
    </marker>
    <marker
       id="marker9404"
       overflow="visible"
       orient="auto">
      <path
         transform="matrix(-.8 0 0 -.8 -10 0)"
         d="m0 0 5-5-17.5 5 17.5 5z"
         fill-rule="evenodd"
         stroke="#000"
         stroke-width="1pt"
         id="path6" />
    </marker>
    <marker
       id="marker14675"
       overflow="visible"
       orient="auto">
      <path
         transform="matrix(-.8 0 0 -.8 -10 0)"
         d="m0 0 5-5-17.5 5 17.5 5z"
         fill-rule="evenodd"
         stroke="#000"
         stroke-width="1pt"
         id="path7" />
    </marker>
  </defs>
  <metadata
     id="metadata7">
    <rdf:RDF>
      <cc:Work
         rdf:about="">
        <dc:format>image/svg+xml</dc:format>
        <dc:type
           rdf:resource="http://purl.org/dc/dcmitype/StillImage" />
        <dc:title />
        <cc:license
           rdf:resource="" />
      </cc:Work>
    </rdf:RDF>
  </metadata>
  <g
     transform="translate(35.699 -43.865)"
     id="g46">
    <g
       transform="matrix(.7339 0 0 .7339 182.59 -137.01)"
       id="g7">
      <rect
         x="-236.07"
         y="452.72"
         width="193.57"
         height="79.286"
         ry="12.515"
         fill="#00d2e6"
         stroke="#000"
         stroke-width="3"
         id="rect7" />
      <text
         x="-192.49997"
         y="503.43369"
         fill="#000000"
         font-family="sans-serif"
         font-size="40px"
         letter-spacing="0px"
         stroke-width="1px"
         word-spacing="0px"
         style="line-height:0%"
         xml:space="preserve"
         id="text7"><tspan
           x="-192.49997"
           y="503.43369"
           font-family="sans-serif"
           id="tspan7">proxy</tspan></text>
    </g>
    <rect
       x="21.867"
       y="69.224"
       width="142.06"
       height="58.188"
       ry="9.185"
       fill="#bfff53"
       stroke="#000"
       stroke-width="2.2729"
       id="rect8" />
    <text
       x="53.844246"
       y="106.44365"
       fill="#000000"
       font-family="sans-serif"
       font-size="29.356px"
       letter-spacing="0px"
       stroke-width="1px"
       word-spacing="0px"
       style="line-height:0%"
       xml:space="preserve"
       id="text8"><tspan
         x="53.844246"
         y="106.44365"
         font-family="sans-serif"
         id="tspan8">client</tspan></text>
    <g
       transform="matrix(.7339 0 0 .7339 22.792 109.34)"
       id="g9">
      <rect
         x="241.79"
         y="585.58"
         width="193.57"
         height="79.286"
         ry="12.515"
         fill="#d0b8ff"
         stroke="#000"
         stroke-width="3"
         id="rect9" />
      <text
         x="260.35718"
         y="639.14795"
         fill="#000000"
         font-family="sans-serif"
         font-size="40px"
         letter-spacing="0px"
         stroke-width="1px"
         word-spacing="0px"
         style="line-height:0%"
         xml:space="preserve"
         id="text9"><tspan
           x="260.35718"
           y="639.14795"
           font-family="sans-serif"
           id="tspan9">sentinel</tspan></text>
    </g>
    <g
       transform="translate(0,-6)"
       id="g16">
      <rect
         x="70.337"
         y="633.97"
         width="401.9"
         height="130.18"
         ry="20.548"
         fill="#f2f2f2"
         stroke="#000"
         stroke-width="2.4418"
         id="rect10" />
      <g
         transform="matrix(0.24154,0,0,0.24154,48.145478,605.13654)"
         id="g13">
        <g
           fill="#419eda"
           id="g12">
          <path
             d="m 296.54,384.04 c 0,8.063 -6.533,14.585 -14.585,14.585 -8.058,0 -14.573,-6.521 -14.573,-14.585 0,-8.029 6.516,-14.576 14.573,-14.576 8.052,0 14.585,6.547 14.585,14.576 z"
             id="path10" />
          <path
             d="m 315.39,384.04 c 0,8.063 6.534,14.585 14.586,14.585 8.05,0 14.577,-6.521 14.577,-14.585 0,-8.032 -6.527,-14.579 -14.577,-14.579 -8.052,0 -14.586,6.547 -14.586,14.579 z"
             id="path11" />
          <path
             d="m 414.64,399.85 c -1.05,0.088 -2.105,0.129 -3.226,0.129 -6.503,0 -12.812,-1.525 -18.504,-4.318 1.895,-10.871 2.701,-21.823 2.49,-32.735 -6.171,-8.926 -13.224,-17.348 -21.185,-25.107 3.454,-6.476 8.56,-12.048 14.934,-15.999 l 2.737,-1.692 -2.133,-2.405 c -10.988,-12.373 -24.102,-21.939 -38.97,-28.43 l -2.965,-1.29 -0.753,3.134 c -1.773,7.304 -5.479,13.893 -10.567,19.181 -9.779,-5.198 -19.995,-9.399 -30.53,-12.581 -10.51,3.175 -20.708,7.364 -30.483,12.554 -5.067,-5.281 -8.764,-11.854 -10.53,-19.137 l -0.758,-3.133 -2.954,1.284 c -14.681,6.397 -28.156,16.222 -38.964,28.411 l -2.139,2.41 2.734,1.692 c 6.354,3.936 11.446,9.475 14.894,15.916 -7.937,7.729 -14.982,16.124 -21.148,25.009 -0.24,10.907 0.525,21.939 2.429,32.96 -5.664,2.767 -11.938,4.275 -18.398,4.275 -1.134,0 -2.195,-0.041 -3.226,-0.127 l -3.212,-0.245 0.301,3.207 c 1.574,16.225 6.612,31.657 14.982,45.872 l 1.634,2.774 2.453,-2.082 c 5.685,-4.822 12.554,-8.015 19.858,-9.302 4.815,9.845 10.522,19.095 16.996,27.683 10.33,3.613 21.093,6.31 32.208,7.915 1.066,7.351 0.217,14.954 -2.683,21.984 l -1.223,2.979 3.145,0.692 c 8.053,1.771 16.177,2.673 24.132,2.673 l 24.125,-2.673 3.148,-0.692 -1.226,-2.985 c -2.892,-7.03 -3.741,-14.642 -2.675,-21.994 11.071,-1.606 21.794,-4.297 32.086,-7.899 6.48,-8.595 12.192,-17.851 17.015,-27.709 7.327,1.279 14.235,4.474 19.955,9.31 l 2.453,2.079 1.626,-2.767 c 8.385,-14.233 13.422,-29.664 14.972,-45.863 l 0.301,-3.201 z m -74.146,39.211 c -11.413,3.104 -23.004,4.671 -34.526,4.671 -11.553,0 -23.13,-1.566 -34.553,-4.671 -6.267,-9.738 -11.222,-20.17 -14.788,-31.153 -3.551,-10.932 -5.629,-22.385 -6.232,-34.178 7.377,-9.121 15.766,-17.111 25.035,-23.837 9.419,-6.851 19.666,-12.417 30.538,-16.604 10.854,4.188 21.082,9.746 30.479,16.568 9.305,6.762 17.731,14.814 25.144,23.992 -0.632,11.726 -2.735,23.113 -6.292,34.027 -3.557,10.981 -8.528,21.446 -14.805,31.185 z"
             id="path12" />
        </g>
      </g>
      <g
         transform="translate(51.721758,33.245226)"
         id="g14">
        <path
           d="m 140.39,638.44 a 3.8321,3.8007 0 0 0 -1.4686,0.37163 l -20.04,9.5752 a 3.8321,3.8007 0 0 0 -2.0734,2.5783 l -4.944,21.508 a 3.8321,3.8007 0 0 0 0.52028,2.9141 3.8321,3.8007 0 0 0 0.21786,0.30242 l 13.871,17.246 a 3.8321,3.8007 0 0 0 2.9961,1.4301 l 22.244,-0.005 a 3.8321,3.8007 0 0 0 2.9961,-1.4276 l 13.866,-17.249 a 3.8321,3.8007 0 0 0 0.7407,-3.2165 l -4.9516,-21.508 a 3.8321,3.8007 0 0 0 -2.0734,-2.5783 l -20.042,-9.5701 a 3.8321,3.8007 0 0 0 -1.8582,-0.37163 z"
           fill="#326ce5"
           stroke-width="0"
           id="path13" />
        <path
           d="m 140.59,645.76 c -0.66243,6e-5 -1.1995,0.59672 -1.1995,1.3327 0,0.0113 0.002,0.0221 0.002,0.0333 -9.6e-4,0.10005 -0.006,0.22048 -0.002,0.30755 0.0158,0.42451 0.10833,0.74941 0.16403,1.1405 0.10088,0.8371 0.18545,1.531 0.13328,2.176 -0.0508,0.2432 -0.22988,0.46563 -0.38958,0.62023 l -0.0282,0.50746 c -0.71982,0.0597 -1.4445,0.16885 -2.1683,0.33319 -3.1145,0.70714 -5.796,2.3114 -7.8375,4.4775 -0.13248,-0.0904 -0.36423,-0.25664 -0.43315,-0.30755 -0.21416,0.029 -0.4306,0.095 -0.7125,-0.0692 -0.53678,-0.36132 -1.0257,-0.86008 -1.6172,-1.4609 -0.27106,-0.2874 -0.46735,-0.56106 -0.78939,-0.83809 -0.0732,-0.0629 -0.18474,-0.148 -0.26655,-0.21272 -0.25178,-0.20075 -0.54874,-0.30543 -0.83552,-0.31526 -0.36874,-0.0127 -0.7237,0.13154 -0.956,0.42289 -0.41295,0.51796 -0.28074,1.3096 0.29475,1.7684 0.006,0.004 0.012,0.008 0.018,0.0129 0.0791,0.0641 0.17592,0.14624 0.24861,0.1999 0.34174,0.25233 0.65392,0.38149 0.99443,0.5818 0.71738,0.44302 1.3121,0.81038 1.7838,1.2533 0.1842,0.19635 0.2164,0.54236 0.24091,0.692 l 0.38445,0.34343 c -2.058,3.0972 -3.0105,6.9228 -2.4476,10.821 l -0.50234,0.14609 c -0.13239,0.17097 -0.31948,0.43999 -0.51516,0.52028 -0.61717,0.1944 -1.3118,0.26578 -2.1503,0.35369 -0.39369,0.0327 -0.73339,0.0132 -1.1508,0.0923 -0.0918,0.0174 -0.21985,0.0507 -0.32036,0.0743 -0.003,6.9e-4 -0.006,0.002 -0.0104,0.002 -0.005,10e-4 -0.0127,0.004 -0.018,0.005 -0.70697,0.17082 -1.1611,0.82064 -1.0149,1.4609 0.14625,0.64041 0.83681,1.0298 1.548,0.87654 0.005,-0.001 0.0126,-0.001 0.018,-0.002 0.008,-0.002 0.0152,-0.006 0.023,-0.007 0.0991,-0.0218 0.22339,-0.046 0.31011,-0.0692 0.41036,-0.10987 0.70754,-0.27131 1.0764,-0.41264 0.79365,-0.28465 1.451,-0.52245 2.0914,-0.61511 0.26746,-0.021 0.54926,0.16502 0.68943,0.24348 l 0.52284,-0.0897 c 1.2032,3.7303 3.7246,6.7453 6.9174,8.6372 l -0.21785,0.52285 c 0.0786,0.20302 0.16513,0.47771 0.10663,0.6782 -0.23281,0.60372 -0.63159,1.241 -1.0857,1.9514 -0.21987,0.32822 -0.44489,0.58293 -0.6433,0.95855 -0.0474,0.0899 -0.10795,0.22795 -0.15378,0.32293 -0.30828,0.6596 -0.0821,1.4193 0.51003,1.7044 0.59589,0.28687 1.3356,-0.0157 1.6557,-0.67662 5.3e-4,-9.3e-4 0.002,-0.002 0.002,-0.002 3.5e-4,-7e-4 -3.5e-4,-0.002 0,-0.002 0.0456,-0.0937 0.11019,-0.21689 0.14866,-0.305 0.16994,-0.38933 0.22649,-0.72296 0.34599,-1.0995 0.31737,-0.79719 0.49174,-1.6336 0.92862,-2.1549 0.11964,-0.14273 0.31467,-0.19761 0.51689,-0.25176 l 0.27167,-0.49208 c 2.7834,1.0684 5.899,1.3551 9.0114,0.64843 0.70999,-0.16121 1.3954,-0.36985 2.058,-0.62024 0.0764,0.13543 0.21825,0.39578 0.25629,0.46133 0.2055,0.0668 0.4298,0.1014 0.61255,0.37163 0.32687,0.55843 0.55039,1.2191 0.82271,2.017 0.11953,0.37654 0.17859,0.7102 0.34857,1.0995 0.0387,0.0887 0.10306,0.21364 0.14865,0.30755 0.31942,0.66308 1.0614,0.96668 1.6582,0.67919 0.59211,-0.28524 0.81849,-1.0449 0.51003,-1.7044 -0.0459,-0.095 -0.10886,-0.23306 -0.15634,-0.32293 -0.19843,-0.37561 -0.42342,-0.62778 -0.6433,-0.95598 -0.45413,-0.7104 -0.83079,-1.3006 -1.0636,-1.9043 -0.0974,-0.31137 0.0164,-0.50502 0.0923,-0.70738 -0.0454,-0.0521 -0.1426,-0.3461 -0.19991,-0.48439 3.3181,-1.9592 5.7655,-5.0866 6.9149,-8.6987 0.1552,0.0244 0.42496,0.0721 0.51259,0.0897 0.18039,-0.11898 0.34627,-0.27422 0.67149,-0.24861 0.6404,0.0926 1.2977,0.3305 2.0914,0.61511 0.36891,0.14132 0.66609,0.30535 1.0764,0.4152 0.0868,0.0233 0.21097,0.0448 0.31012,0.0666 0.008,0.002 0.0151,0.006 0.023,0.007 0.005,0.001 0.0128,0.001 0.018,0.002 0.71126,0.15312 1.402,-0.23609 1.548,-0.87653 0.14604,-0.64029 -0.30792,-1.2903 -1.0149,-1.4609 -0.10286,-0.0233 -0.2487,-0.0631 -0.34857,-0.082 -0.41738,-0.0791 -0.75707,-0.0596 -1.1508,-0.0923 -0.83857,-0.0879 -1.5331,-0.15932 -2.1503,-0.35369 -0.25165,-0.0977 -0.43066,-0.39705 -0.51773,-0.52028 l -0.48439,-0.14096 c 0.25115,-1.817 0.18343,-3.708 -0.25118,-5.6001 -0.43864,-1.9097 -1.2138,-3.6563 -2.2477,-5.1951 0.12426,-0.11295 0.35892,-0.32074 0.42546,-0.38187 0.0194,-0.21523 0.003,-0.44088 0.22554,-0.6792 0.47169,-0.44293 1.0665,-0.81022 1.7838,-1.2533 0.34051,-0.20032 0.65526,-0.32945 0.997,-0.58179 0.0773,-0.0571 0.1828,-0.14743 0.26398,-0.21272 0.57536,-0.45899 0.70784,-1.2506 0.29474,-1.7684 -0.4131,-0.51784 -1.2136,-0.56662 -1.789,-0.10764 -0.0819,0.0649 -0.19302,0.14947 -0.26654,0.21273 -0.32203,0.27704 -0.52092,0.55067 -0.79196,0.83808 -0.59153,0.60084 -1.0805,1.1021 -1.6172,1.4634 -0.23259,0.13541 -0.57327,0.0885 -0.72788,0.0794 l -0.45621,0.3255 c -2.6014,-2.7278 -6.1433,-4.4719 -9.9571,-4.8107 -0.0107,-0.15983 -0.0246,-0.44872 -0.0282,-0.53566 -0.15613,-0.1494 -0.34474,-0.27695 -0.39213,-0.59974 -0.0522,-0.64495 0.035,-1.3388 0.13584,-2.176 0.0557,-0.39111 0.14823,-0.716 0.16402,-1.1405 0.004,-0.0965 -0.002,-0.23653 -0.002,-0.34088 -7e-5,-0.736 -0.53704,-1.3328 -1.1995,-1.3327 z m -1.5019,9.3035 -0.35624,6.2921 -0.0256,0.0128 c -0.0239,0.5629 -0.48716,1.0124 -1.056,1.0124 -0.23298,0 -0.44803,-0.0748 -0.62279,-0.20247 l -0.0104,0.005 -5.1592,-3.6573 c 1.5856,-1.5592 3.6138,-2.7114 5.9512,-3.2422 0.42696,-0.0969 0.85374,-0.16888 1.2789,-0.22042 z m 3.0064,0 c 2.7289,0.33564 5.2526,1.5713 7.1865,3.4651 l -5.1259,3.6343 -0.018,-0.007 c -0.45497,0.33229 -1.096,0.24984 -1.4506,-0.19479 -0.14528,-0.18216 -0.22151,-0.39633 -0.23067,-0.61255 l -0.005,-0.002 z m -12.107,5.8128 4.7107,4.2135 -0.005,0.0256 c 0.42519,0.36964 0.48789,1.0111 0.13327,1.4558 -0.14526,0.18215 -0.33972,0.30433 -0.54847,0.36137 l -0.005,0.0204 -6.0383,1.7428 c -0.30732,-2.8103 0.35501,-5.542 1.7531,-7.8196 z m 21.173,0.002 c 0.69992,1.1345 1.2299,2.4016 1.5455,3.7752 0.31175,1.3572 0.38998,2.712 0.26143,4.0213 l -6.0691,-1.7479 -0.005,-0.0256 c -0.54347,-0.14854 -0.87747,-0.70136 -0.75095,-1.2558 0.0518,-0.22715 0.17241,-0.41931 0.33575,-0.56129 l -0.002,-0.0128 4.6851,-4.193 z m -11.536,4.5364 h 1.9299 l 1.1995,1.4993 -0.43058,1.871 -1.7326,0.83296 -1.7377,-0.83552 -0.43058,-1.871 z m 6.187,5.131 c 0.082,-0.004 0.16366,0.003 0.24347,0.018 l 0.0104,-0.0128 6.2459,1.0559 c -0.91409,2.5681 -2.6632,4.793 -5.0003,6.2818 l -2.4246,-5.8564 0.007,-0.0104 c -0.22271,-0.51751 1.8e-4,-1.1244 0.51259,-1.3712 0.1312,-0.0632 0.26826,-0.0982 0.40495,-0.10508 z m -10.49,0.0256 c 0.47665,0.006 0.90418,0.33752 1.0149,0.82271 0.0519,0.22715 0.0266,0.45221 -0.0589,0.65099 l 0.0179,0.023 -2.3989,5.7974 c -2.2429,-1.4392 -4.0293,-3.5942 -4.985,-6.2382 l 6.1921,-1.0508 0.0104,0.0128 c 0.0692,-0.0128 0.13951,-0.0189 0.2076,-0.0179 z m 5.231,2.5399 c 0.16604,-0.006 0.33452,0.0279 0.49466,0.10508 0.20991,0.10109 0.37207,0.26025 0.47414,0.45109 h 0.023 l 3.0525,5.5155 c -0.39615,0.1328 -0.80342,0.24629 -1.22,0.34087 -2.3345,0.53005 -4.6616,0.36945 -6.7688,-0.34855 l 3.0448,-5.5052 h 0.005 c 0.1827,-0.34154 0.52919,-0.54531 0.89447,-0.55873 z"
           color="#000000"
           fill="#ffffff"
           stroke="#ffffff"
           stroke-width="0.020504"
           style="text-indent:0;text-decoration-line:none;text-transform:none"
           id="path14" />
      </g>
      <text
         x="231.47523"
         y="672.90137"
         fill="#000000"
         font-family="sans-serif"
         font-size="30px"
         letter-spacing="0px"
         stroke-width="0.93751px"
         word-spacing="0px"
         style="line-height:1.25;font-variant-ligatures:normal;font-variant-caps:normal;font-variant-numeric:normal;font-feature-settings:normal;white-space:pre;inline-size:236.249"
         xml:space="preserve"
         id="text16"
         transform="translate(25.231968)"><tspan
           x="231.47523"
           y="672.90137"
           id="tspan1">etcd, </tspan><tspan
           x="231.47523"
           y="710.40134"
           id="tspan2">kubernetes </tspan><tspan
           x="231.47523"
           y="747.90134"
           id="tspan3">APIstore</tspan></text>
    </g>
    <g
       transform="matrix(.7339 0 0 .7339 -18.202 4.6052)"
       id="g17">
      <rect
         x="41.071"
         y="727.01"
         width="193.57"
         height="79.286"
         ry="12.515"
         fill="#d0b8ff"
         stroke="#000"
         stroke-width="3"
         id="rect16" />
      <text
         x="59.642876"
         y="780.57648"
         fill="#000000"
         font-family="sans-serif"
         font-size="40px"
         letter-spacing="0px"
         stroke-width="1px"
         word-spacing="0px"
         style="line-height:0%"
         xml:space="preserve"
         id="text17"><tspan
           x="59.642876"
           y="780.57648"
           font-family="sans-serif"
           id="tspan17">sentinel</tspan></text>
    </g>
    <g
       transform="matrix(.7339 0 0 .7339 210.67 108.82)"
       id="g18">
      <rect
         x="241.79"
         y="585.58"
         width="193.57"
         height="79.286"
         ry="12.515"
         fill="#d0b8ff"
         stroke="#000"
         stroke-width="3"
         id="rect17" />
      <text
         x="260.35718"
         y="639.14795"
         fill="#000000"
         font-family="sans-serif"
         font-size="40px"
         letter-spacing="0px"
         stroke-width="1px"
         word-spacing="0px"
         style="line-height:0%"
         xml:space="preserve"
         id="text18"><tspan
           x="260.35718"
           y="639.14795"
           font-family="sans-serif"
           id="tspan18">sentinel</tspan></text>
    </g>
    <g
       transform="matrix(.7339 0 0 .7339 369.19 -136.73)"
       id="g19">
      <rect
         x="-236.07"
         y="452.72"
         width="193.57"
         height="79.286"
         ry="12.515"
         fill="#00d2e6"
         stroke="#000"
         stroke-width="3"
         id="rect18" />
      <text
         x="-192.49997"
         y="503.43369"
         fill="#000000"
         font-family="sans-serif"
         font-size="40px"
         letter-spacing="0px"
         stroke-width="1px"
         word-spacing="0px"
         style="line-height:0%"
         xml:space="preserve"
         id="text19"><tspan
           x="-192.49997"
           y="503.43369"
           font-family="sans-serif"
           id="tspan19">proxy</tspan></text>
    </g>
    <rect
       x="384.07"
       y="195.52"
       width="142.06"
       height="58.188"
       ry="9.185"
       fill="#00d2e6"
       stroke="#000"
       stroke-width="2.2017"
       id="rect19" />
    <text
       x="416.05087"
       y="232.73831"
       fill="#000000"
       font-family="sans-serif"
       font-size="29.356px"
       letter-spacing="0px"
       stroke-width="1px"
       word-spacing="0px"
       style="line-height:0%"
       xml:space="preserve"
       id="text20"><tspan
         x="416.05087"
         y="232.73831"
         font-family="sans-serif"
         id="tspan20">proxy</tspan></text>
    <rect
       x="383.13"
       y="326.74"
       width="182.43"
       height="142.69"
       ry="22.524"
       fill="#ffe680"
       stroke="#000"
       stroke-width="2.2017"
       id="rect20" />
    <rect
       x="389.98"
       y="377.29"
       width="169.04"
       height="85.54"
       ry="13.503"
       fill="#f96"
       stroke="#000"
       stroke-width="2.2017"
       id="rect21" />
    <text
       x="472.74597"
       y="401.37823"
       fill="#000000"
       font-family="sans-serif"
       font-size="22.017px"
       letter-spacing="0px"
       stroke-width="1px"
       text-align="center"
       text-anchor="middle"
       word-spacing="0px"
       style="line-height:0%"
       xml:space="preserve"
       id="text23"><tspan
         x="472.74597"
         y="401.37823"
         text-align="center"
         style="line-height:110.00000238%"
         id="tspan21">PostgreSQL</tspan><tspan
         x="472.74597"
         y="425.59698"
         text-align="center"
         style="line-height:110.00000238%"
         id="tspan22">instance</tspan><tspan
         x="472.74597"
         y="449.8157"
         text-align="center"
         style="line-height:110.00000238%"
         id="tspan23">(standby)</tspan></text>
    <text
       x="423.6698"
       y="359.80786"
       fill="#000000"
       font-family="sans-serif"
       font-size="29.356px"
       letter-spacing="0px"
       stroke-width="1px"
       word-spacing="0px"
       style="line-height:0%"
       xml:space="preserve"
       id="text24"><tspan
         x="423.6698"
         y="359.80786"
         font-family="sans-serif"
         id="tspan24">keeper</tspan></text>
    <rect
       x="173.84"
       y="326.74"
       width="182.43"
       height="142.69"
       ry="22.524"
       fill="#ffe680"
       stroke="#000"
       stroke-width="2.2017"
       id="rect24" />
    <rect
       x="180.69"
       y="377.29"
       width="169.04"
       height="85.54"
       ry="13.503"
       fill="#f96"
       stroke="#000"
       stroke-width="2.2017"
       id="rect25" />
    <text
       x="263.45737"
       y="401.37823"
       fill="#000000"
       font-family="sans-serif"
       font-size="22.017px"
       letter-spacing="0px"
       stroke-width="1px"
       text-align="center"
       text-anchor="middle"
       word-spacing="0px"
       style="line-height:0%"
       xml:space="preserve"
       id="text27"><tspan
         x="263.45737"
         y="401.37823"
         text-align="center"
         style="line-height:110.00000238%"
         id="tspan25">PostgreSQL</tspan><tspan
         x="263.45737"
         y="425.59698"
         text-align="center"
         style="line-height:110.00000238%"
         id="tspan26">instance</tspan><tspan
         x="263.45737"
         y="449.8157"
         text-align="center"
         style="line-height:110.00000238%"
         id="tspan27">(master)</tspan></text>
    <text
       x="214.3812"
       y="359.80783"
       fill="#000000"
       font-family="sans-serif"
       font-size="29.356px"
       letter-spacing="0px"
       stroke-width="1px"
       word-spacing="0px"
       style="line-height:0%"
       xml:space="preserve"
       id="text28"><tspan
         x="214.3812"
         y="359.80783"
         font-family="sans-serif"
         id="tspan28">keeper</tspan></text>
    <rect
       x="-34.598"
       y="326"
       width="182.43"
       height="142.69"
       ry="22.524"
       fill="#ffe680"
       stroke="#000"
       stroke-width="2.2017"
       id="rect28" />
    <rect
       x="-27.753"
       y="376.55"
       width="169.04"
       height="85.54"
       ry="13.503"
       fill="#f96"
       stroke="#000"
       stroke-width="2.2017"
       id="rect29" />
    <text
       x="55.014458"
       y="400.6369"
       fill="#000000"
       font-family="sans-serif"
       font-size="22.017px"
       letter-spacing="0px"
       stroke-width="1px"
       text-align="center"
       text-anchor="middle"
       word-spacing="0px"
       style="line-height:0%"
       xml:space="preserve"
       id="text31"><tspan
         x="55.014458"
         y="400.6369"
         text-align="center"
         style="line-height:110.00000238%"
         id="tspan29">PostgreSQL</tspan><tspan
         x="55.014458"
         y="424.85562"
         text-align="center"
         style="line-height:110.00000238%"
         id="tspan30">instance</tspan><tspan
         x="55.014458"
         y="449.07437"
         text-align="center"
         style="line-height:110.00000238%"
         id="tspan31">(standby)</tspan></text>
    <text
       x="5.9382939"
       y="359.06647"
       fill="#000000"
       font-family="sans-serif"
       font-size="29.356px"
       letter-spacing="0px"
       stroke-width="1px"
       word-spacing="0px"
       style="line-height:0%"
       xml:space="preserve"
       id="text32"><tspan
         x="5.9382939"
         y="359.06647"
         font-family="sans-serif"
         id="tspan32">keeper</tspan></text>
    <rect
       x="201.88"
       y="44.966"
       width="142.06"
       height="58.188"
       ry="9.185"
       fill="#bfff53"
       stroke="#000"
       stroke-width="2.2017"
       id="rect32" />
    <text
       x="233.85446"
       y="82.184959"
       fill="#000000"
       font-family="sans-serif"
       font-size="29.356px"
       letter-spacing="0px"
       stroke-width=".7339px"
       word-spacing="0px"
       style="line-height:0%"
       xml:space="preserve"
       id="text33"><tspan
         x="233.85446"
         y="82.184959"
         font-family="sans-serif"
         stroke-width=".7339px"
         id="tspan33">client</tspan></text>
    <rect
       x="373.87"
       y="77.585"
       width="142.06"
       height="58.188"
       ry="9.185"
       fill="#bfff53"
       stroke="#000"
       stroke-width="2.2017"
       id="rect33" />
    <text
       x="405.84821"
       y="114.80447"
       fill="#000000"
       font-family="sans-serif"
       font-size="29.356px"
       letter-spacing="0px"
       stroke-width=".7339px"
       word-spacing="0px"
       style="line-height:0%"
       xml:space="preserve"
       id="text34"><tspan
         x="405.84821"
         y="114.80447"
         font-family="sans-serif"
         stroke-width=".7339px"
         id="tspan34">client</tspan></text>
    <g
       fill="none"
       stroke="#000"
       stroke-width="1px"
       id="g45">
      <path
         d="m440.7 135.77 9.6858 59.746"
         marker-end="url(#marker14675)"
         id="path34" />
      <path
         d="m261.48 103.15 4.1732 92.365"
         marker-end="url(#marker14675)"
         id="path35" />
      <path
         d="m133 127.41 93.869 68.107"
         marker-end="url(#marker14675)"
         id="path36" />
      <path
         d="m90.004 127.41-6.7471 67.831"
         marker-end="url(#marker14675)"
         id="path37" />
      <path
         d="m111.29 253.43 78.85 74.178"
         marker-end="url(#marker14675)"
         id="path38" />
      <path
         d="m266.65 253.71-0.80304 73.037"
         marker-end="url(#marker14675)"
         id="path39" />
      <path
         d="m147.83 397.67 26.016 0.0925"
         marker-end="url(#marker9404)"
         id="path40" />
      <path
         d="m383.13 398.09h-26.862"
         marker-end="url(#marker10516)"
         id="path41" />
      <path
         d="m234.72 539.1-94.988-75.602"
         marker-end="url(#marker10018)"
         id="path42" />
      <path
         d="m270.21 539.1-2.5442-69.664"
         marker-end="url(#marker9864)"
         id="path43" />
      <path
         d="m306 539.1 87.437-73.24"
         marker-end="url(#marker9716)"
         id="path44" />
      <path
         d="m423.23 253.71-81.569 74.457"
         marker-end="url(#marker10780)"
         id="path45" />
    </g>
  </g>
</svg>
